<?xml version="1.0" encoding="UTF-8" standalone="no"?>
<!-- Created with Inkscape (http://www.inkscape.org/) -->

<svg
   xmlns:dc="http://purl.org/dc/elements/1.1/"
   xmlns:cc="http://creativecommons.org/ns#"
   xmlns:rdf="http://www.w3.org/1999/02/22-rdf-syntax-ns#"
   xmlns:svg="http://www.w3.org/2000/svg"
   xmlns="http://www.w3.org/2000/svg"
   xmlns:sodipodi="http://sodipodi.sourceforge.net/DTD/sodipodi-0.dtd"
   xmlns:inkscape="http://www.inkscape.org/namespaces/inkscape"
   width="645.30188"
   height="645.40625"
   id="svg2"
   version="1.1"
   inkscape:version="0.48.2 r9819"
   sodipodi:docname="New document 1">
  <defs
     id="defs4" />
  <sodipodi:namedview
     id="base"
     pagecolor="#ffffff"
     bordercolor="#666666"
     borderopacity="1.0"
     inkscape:pageopacity="0.0"
     inkscape:pageshadow="2"
     inkscape:zoom="0.35"
     inkscape:cx="197.0184"
     inkscape:cy="342.87497"
     inkscape:document-units="px"
     inkscape:current-layer="layer1"
     showgrid="false"
     inkscape:window-width="1920"
     inkscape:window-height="1017"
     inkscape:window-x="-8"
     inkscape:window-y="-8"
     inkscape:window-maximized="1"
     fit-margin-top="0"
     fit-margin-left="0"
     fit-margin-right="0"
     fit-margin-bottom="0" />
  <metadata
     id="metadata7">
    <rdf:RDF>
      <cc:Work
         rdf:about="">
        <dc:format>image/svg+xml</dc:format>
        <dc:type
           rdf:resource="http://purl.org/dc/dcmitype/StillImage" />
        <dc:title></dc:title>
      </cc:Work>
    </rdf:RDF>
  </metadata>
  <g
     inkscape:label="Layer 1"
     inkscape:groupmode="layer"
     id="layer1"
     transform="translate(-47.726602,-43.950893)">
    <path
       style="fill:#000000"
       d="m 437.6741,43.950893 c -68.23059,0 -132.3837,26.56248 -180.625,74.812507 -86.13457,86.12585 -97.64588,218.9102 -34.78125,317.6875 l -33.6875,33.71875 -124.624993,124.625 c -21.63834,21.62962 -21.63834,56.68288 0,78.3125 10.80173,10.81917 24.97789,16.25 39.156253,16.25 14.17835,0 28.33707,-5.43083 39.15625,-16.25 L 266.83035,548.5759 c -15.14684,-10.43527 -29.56409,-22.18909 -42.84375,-35.46875 -2.39069,-2.39069 -4.41531,-4.97701 -6.71875,-7.4375 l -0.125,-0.0625 33.09375,-33.125 c 2.31216,2.50412 4.39564,5.14564 6.8125,7.5625 48.25875,48.2413 112.39441,74.78125 180.625,74.78125 68.23059,0 132.40623,-26.53995 180.65625,-74.78125 99.59747,-99.61492 99.59747,-261.67505 0,-361.28125 C 570.08033,70.522103 505.90469,43.950893 437.6741,43.950893 z m 0,69.250007 c 49.74202,0 96.51646,19.36894 131.6875,54.53125 72.60161,72.60188 72.61061,190.73314 0,263.34375 -35.17105,35.14486 -81.94548,54.5 -131.6875,54.5 -49.72457,0 -96.49394,-19.35514 -131.65625,-54.5 -72.59343,-72.61934 -72.58443,-190.75059 0,-263.34375 35.17976,-35.16231 81.92295,-54.53125 131.65625,-54.53125 z m 6.15625,65.71875 c -44.60194,0 -80.11152,13.78709 -106.59375,41.34375 -23.86764,24.74357 -35.8125,54.77955 -35.8125,90.15625 0,29.72934 9.82739,55.9456 29.46875,78.625 24.51865,28.31353 59.45899,42.46875 104.8125,42.46875 23.33305,0 44.70593,-3.80323 64.125,-11.40625 19.41908,-7.59244 34.02672,-15.7235 43.78125,-24.40625 l -10.75,-14.65625 c -12.9037,9.6619 -27.14321,17.33626 -42.65625,23.03125 -15.51567,5.69763 -32.26211,8.5625 -50.28125,8.5625 -38.51529,0 -68.19636,-10.90471 -89.03125,-32.71875 -17.79421,-18.4505 -26.6875,-41.21844 -26.6875,-68.34375 0,-31.03135 9.34307,-56.81106 28,-77.3125 21.80874,-24.08992 53.32675,-36.125 94.5625,-36.125 29.73199,0 53.36294,7.18212 70.9375,21.5625 17.58778,14.37245 26.375,34.13758 26.375,59.3125 0,20.83224 -4.89807,37.71865 -14.71875,50.625 -9.81805,12.91959 -20.92005,19.34375 -33.28125,19.34375 -3.80284,0 -7.20239,-1.08955 -10.1875,-3.3125 -2.98775,-2.22031 -4.46875,-5.78428 -4.46875,-10.65625 0,-2.61462 0.39938,-5.60785 1.15625,-8.96875 0.75686,-3.36353 1.93762,-7.80224 3.5625,-13.34375 l 21.65625,-71.28125 -23.9375,0 -8.125,27.34375 c -0.4393,-9.00824 -4.24416,-16.72607 -11.46875,-23.125 -7.21137,-6.39893 -16.37302,-9.59375 -27.4375,-9.59375 -16.28312,0 -31.48015,8.24988 -45.625,24.75 -14.16338,16.49483 -21.25,35.52795 -21.25,57.125 0,15.18752 4.13849,27.60133 12.4375,37.25 8.29638,9.66719 19.12574,14.5 32.46875,14.5 9.3364,0 18.40155,-2.57685 27.1875,-7.71875 8.78331,-5.16043 16.05665,-13.98052 21.8125,-26.46875 -0.33344,1.41581 -0.59285,2.7785 -0.8125,4.09375 -0.21436,1.29936 -0.34375,2.53053 -0.34375,3.71875 0,7.26429 2.5567,13.49582 7.65625,18.65625 5.09163,5.1419 13.03699,7.71875 23.78125,7.71875 18.33936,0 34.91229,-8.75698 49.71875,-26.28125 14.80644,-17.51898 22.21875,-38.67062 22.21875,-63.40625 0,-29.41177 -10.37266,-53.31008 -31.09375,-71.75 -22.13424,-19.53286 -52.53245,-29.3125 -91.15625,-29.3125 z m -1.1875,74.0625 c 7.91,0 14.09228,2.66441 18.59375,8.03125 4.50148,5.37742 6.78125,11.43182 6.78125,18.15625 0,13.77701 -4.11404,29.21694 -12.3125,46.3125 -8.16405,17.09027 -19.5663,25.625 -34.1875,25.625 -7.05788,0 -12.92342,-2.78321 -17.5625,-8.375 -4.66556,-5.58649 -7,-13.70533 -7,-24.34375 0,-14.42801 4.52778,-28.92856 13.5625,-43.53125 9.05853,-14.59208 19.77438,-21.875 32.125,-21.875 z"
       id="path2986"
       inkscape:connector-curvature="0"
       sodipodi:nodetypes="scccccsccsccccsccssccsccsscscsccccscscscscscsccccccscscscccscscscsscscscscs" />
  </g>
</svg>
