<?xml version="1.0" encoding="UTF-8" standalone="no"?>
<!-- Created with Inkscape (http://www.inkscape.org/) -->

<svg
   xmlns:dc="http://purl.org/dc/elements/1.1/"
   xmlns:cc="http://creativecommons.org/ns#"
   xmlns:rdf="http://www.w3.org/1999/02/22-rdf-syntax-ns#"
   xmlns:svg="http://www.w3.org/2000/svg"
   xmlns="http://www.w3.org/2000/svg"
   xmlns:sodipodi="http://sodipodi.sourceforge.net/DTD/sodipodi-0.dtd"
   xmlns:inkscape="http://www.inkscape.org/namespaces/inkscape"
   width="432.60947"
   height="100.00032"
   id="svg2"
   version="1.1"
   inkscape:version="0.48.2 r9819"
   sodipodi:docname="Icon.svg">
  <defs
     id="defs4" />
  <sodipodi:namedview
     id="base"
     pagecolor="#ffffff"
     bordercolor="#666666"
     borderopacity="1.0"
     inkscape:pageopacity="0.0"
     inkscape:pageshadow="2"
     inkscape:zoom="1.01"
     inkscape:cx="42.562954"
     inkscape:cy="256.43565"
     inkscape:document-units="px"
     inkscape:current-layer="layer1"
     showgrid="false"
     inkscape:window-width="1920"
     inkscape:window-height="1017"
     inkscape:window-x="-8"
     inkscape:window-y="-8"
     inkscape:window-maximized="1"
     fit-margin-top="0"
     fit-margin-left="0"
     fit-margin-right="0"
     fit-margin-bottom="0" />
  <metadata
     id="metadata7">
    <rdf:RDF>
      <cc:Work
         rdf:about="">
        <dc:format>image/svg+xml</dc:format>
        <dc:type
           rdf:resource="http://purl.org/dc/dcmitype/StillImage" />
        <dc:title></dc:title>
      </cc:Work>
    </rdf:RDF>
  </metadata>
  <g
     inkscape:label="Layer 1"
     inkscape:groupmode="layer"
     id="layer1"
     transform="translate(-47.726602,-589.35683)">
    <path
       style="fill:#000000"
       d="m 108.1553,589.35715 c -10.573439,0 -20.515005,4.11562 -27.990778,11.59154 -13.34795,13.34444 -15.131815,33.9182 -5.389919,49.22287 l -5.220426,5.22442 -19.312666,19.30955 c -3.353212,3.35131 -3.353212,8.78251 0,12.13383 1.673904,1.67633 3.87073,2.51779 6.067897,2.51779 2.197166,0 4.391289,-0.84146 6.067897,-2.51779 l 19.302981,-19.29502 c -2.347249,-1.61685 -4.581436,-3.43801 -6.639335,-5.49557 -0.370476,-0.37042 -0.684224,-0.77114 -1.04118,-1.15238 l -0.01937,-0.01 5.128414,-5.13243 c 0.358306,0.388 0.681175,0.79728 1.055707,1.17175 7.478477,7.47456 17.417339,11.58669 27.990778,11.58669 10.57344,0 20.51849,-4.11213 27.99562,-11.58669 15.43424,-15.43446 15.43424,-40.54424 0,-55.97734 -7.47713,-7.47457 -17.42218,-11.59154 -27.99562,-11.59154 z m 0,10.72968 c 7.70833,0 14.95679,3.00104 20.40712,8.44913 11.25079,11.24902 11.25219,29.55242 0,40.80279 -5.45033,5.44539 -12.69879,8.44429 -20.40712,8.44429 -7.70563,0 -14.953304,-2.9989 -20.402275,-8.44429 -11.249531,-11.25172 -11.248136,-29.55512 0,-40.80279 5.451675,-5.44809 12.695295,-8.44913 20.402275,-8.44913 z m 0.95401,10.18254 c -6.9118,0 -12.414581,2.13618 -16.518433,6.40585 -3.698678,3.83379 -5.549728,8.4876 -5.549728,13.96891 0,4.6063 1.522913,8.66828 4.566661,12.18225 3.799563,4.38693 9.21414,6.58016 16.2424,6.58016 3.61583,0 6.92791,-0.58928 9.93721,-1.7673 3.0093,-1.17638 5.27299,-2.43622 6.78461,-3.78153 l -1.66588,-2.27086 c -1.99964,1.49703 -4.20628,2.6861 -6.61028,3.56849 -2.40441,0.8828 -4.99954,1.32668 -7.7919,1.32668 -5.96857,0 -10.568131,-1.68959 -13.796835,-5.06948 -2.757502,-2.85874 -4.135662,-6.38643 -4.135662,-10.58926 0,-4.80803 1.447861,-8.80237 4.339055,-11.97889 3.379618,-3.73252 8.263842,-5.59725 14.653992,-5.59725 4.60746,0 8.26946,1.11281 10.99292,3.34092 2.72551,2.22689 4.08723,5.28932 4.08723,9.18995 0,3.22777 -0.75903,5.84417 -2.2809,7.8439 -1.52147,2.00177 -3.24191,2.99714 -5.15747,2.99714 -0.58932,0 -1.11613,-0.16882 -1.57872,-0.51324 -0.463,-0.34402 -0.69251,-0.89623 -0.69251,-1.65109 0,-0.40512 0.0619,-0.86889 0.17918,-1.38963 0.11729,-0.52115 0.30027,-1.20889 0.55207,-2.0675 l 3.35599,-11.0444 -3.70951,0 -1.2591,4.23667 c -0.0681,-1.39574 -0.6577,-2.59155 -1.77727,-3.58301 -1.11752,-0.99146 -2.53726,-1.48647 -4.25188,-1.48647 -2.52334,0 -4.87836,1.27825 -7.07034,3.8348 -2.194844,2.55572 -3.293031,5.50474 -3.293031,8.85101 0,2.35317 0.641326,4.27658 1.927392,5.77156 1.285659,1.49784 2.963849,2.24665 5.031559,2.24665 1.44683,0 2.85162,-0.39927 4.21315,-1.19596 1.36111,-0.79956 2.48823,-2.16616 3.3802,-4.1011 -0.0517,0.21937 -0.0919,0.43051 -0.12591,0.63429 -0.0332,0.20133 -0.0533,0.39209 -0.0533,0.57619 0,1.12554 0.3962,2.09106 1.18646,2.89062 0.78903,0.79669 2.02029,1.19596 3.68529,1.19596 2.84198,0 5.41022,-1.35682 7.70473,-4.07205 2.29449,-2.71441 3.44315,-5.99167 3.44315,-9.82424 0,-4.5571 -1.60741,-8.25993 -4.81848,-11.11703 -3.43006,-3.02644 -8.14076,-4.54171 -14.12614,-4.54171 z m -0.18402,11.47533 c 1.22578,0 2.18382,0.41282 2.8814,1.24437 0.69758,0.83318 1.05087,1.77126 1.05087,2.81315 0,2.13463 -0.63754,4.52691 -1.90803,7.17571 -1.26515,2.64799 -3.03211,3.97037 -5.2979,3.97037 -1.09374,0 -2.0027,-0.43123 -2.7216,-1.29763 -0.723,-0.86558 -1.08476,-2.12352 -1.08476,-3.77185 0,-2.23549 0.70165,-4.48223 2.10173,-6.74478 1.40376,-2.26092 3.06436,-3.38934 4.97829,-3.38934 z"
       id="path2986"
       inkscape:connector-curvature="0"
       sodipodi:nodetypes="scccccsccsccccsccssccsccsscscsccccscscscscscsccccccscscscccscscscsscscscscs" />
    <flowRoot
       xml:space="preserve"
       id="flowRoot4243"
       style="font-size:40px;font-style:normal;font-variant:normal;font-weight:bold;font-stretch:normal;line-height:125%;letter-spacing:0px;word-spacing:0px;fill:#000000;fill-opacity:1;stroke:none;font-family:Segoe UI;-inkscape-font-specification:Segoe UI Bold"
       transform="matrix(2,0,0,2,-94.546756,547.85176)"><flowRegion
         id="flowRegion4245"><rect
           id="rect4247"
           width="327.72278"
           height="54.455444"
           x="123.76237"
           y="21.782179" /></flowRegion><flowPara
         id="flowPara4249"
         style="font-style:normal;font-variant:normal;font-weight:normal;font-stretch:normal;font-family:Segoe UI;-inkscape-font-specification:Segoe UI">Razor<flowSpan
   style="fill:#f09609;fill-opacity:1"
   id="flowSpan4251">Spy</flowSpan></flowPara></flowRoot>  </g>
</svg>
